<?xml version="1.0" standalone="no"?>
<!DOCTYPE svg PUBLIC "-//W3C//DTD SVG 1.1//EN" "http://www.w3.org/Graphics/SVG/1.1/DTD/svg11.dtd">
<svg xmlns="http://www.w3.org/2000/svg" width="608.57142" height="608.57142" version="1.1">
<circle cx="304.28571" cy="304.28571" r="304.28571" fill="#ee5a37"/>
<path fill="white" d="m 468.196591,306.1227829 c -3.2e-4,23.42364 -3.74808,44.34864 -11.24329,62.77504 -7.49583,18.11426 -18.11448,33.57377 -31.856,46.37858 -13.74206,12.49257 -30.29466,22.17429 -49.65787,29.04517 -19.05134,6.55859 -40.28864,9.83788 -63.71199,9.83788 l -140.54114,0 0,-18.73882 36.5407,-5.62165 0,-239.85689 -36.5407,-5.62164 0,-18.73882 138.19879,0 c 23.11103,2.9e-4 44.34834,3.12342 63.71199,9.36941 19.36321,5.93423 36.07197,14.83516 50.12634,26.70282 14.05383,11.55584 24.9848,26.07841 32.79293,43.56775 8.11985,17.48976 12.17992,37.79013 12.18024,60.90117 m -60.90117,4.21623 c -2.5e-4,-39.66365 -9.68196,-70.1142 -29.04517,-91.35175 -19.05134,-21.23707 -48.40879,-31.85572 -88.07245,-31.85599 -4.68484,2.7e-4 -9.21338,0.15642 -13.58564,0.46847 -4.0602,0.31258 -8.58874,0.78105 -13.58565,1.40541 l 0,239.85689 c 3.74765,1.24928 7.96388,2.18622 12.64871,2.81083 4.68457,0.62465 8.9008,0.93696 12.6487,0.93694 39.66366,2e-5 69.33343,-10.46248 89.00939,-31.38753 19.98783,-20.92494 29.98186,-51.21933 29.98211,-90.88327"/>
</svg>
